<svg width="644" height="284" viewBox="0 0 644 284" fill="none" xmlns="http://www.w3.org/2000/svg">
<line x1="5.51821" y1="3.05405e-05" x2="5.5182" y2="283.131" stroke="white" stroke-opacity="0.1" stroke-width="1.04863"/>
<line x1="68.4362" y1="3.05405e-05" x2="68.4362" y2="283.131" stroke="white" stroke-opacity="0.1" stroke-width="1.04863"/>
<line x1="131.354" y1="3.05405e-05" x2="131.354" y2="283.131" stroke="white" stroke-opacity="0.1" stroke-width="1.04863"/>
<line x1="194.272" y1="3.05405e-05" x2="194.272" y2="283.131" stroke="white" stroke-opacity="0.1" stroke-width="1.04863"/>
<line x1="257.19" y1="3.05405e-05" x2="257.19" y2="283.131" stroke="white" stroke-opacity="0.1" stroke-width="1.04863"/>
<line x1="320.108" y1="3.05405e-05" x2="320.108" y2="283.131" stroke="white" stroke-opacity="0.1" stroke-width="1.04863"/>
<line x1="383.026" y1="3.05405e-05" x2="383.026" y2="283.131" stroke="white" stroke-opacity="0.1" stroke-width="1.04863"/>
<line x1="445.944" y1="3.05405e-05" x2="445.944" y2="283.131" stroke="white" stroke-opacity="0.1" stroke-width="1.04863"/>
<line x1="508.862" y1="3.05405e-05" x2="508.862" y2="283.131" stroke="white" stroke-opacity="0.1" stroke-width="1.04863"/>
<line x1="571.78" y1="3.05405e-05" x2="571.78" y2="283.131" stroke="white" stroke-opacity="0.1" stroke-width="1.04863"/>
<line x1="634.698" y1="3.05405e-05" x2="634.698" y2="283.131" stroke="white" stroke-opacity="0.1" stroke-width="1.04863"/>
<line x1="643.611" y1="278.412" x2="0.799316" y2="278.412" stroke="white" stroke-opacity="0.1" stroke-width="1.04863"/>
<line x1="643.611" y1="234.369" x2="0.799316" y2="234.369" stroke="white" stroke-opacity="0.1" stroke-width="1.04863"/>
<line x1="643.611" y1="190.327" x2="0.799316" y2="190.327" stroke="white" stroke-opacity="0.1" stroke-width="1.04863"/>
<line x1="643.611" y1="146.284" x2="0.799316" y2="146.284" stroke="white" stroke-opacity="0.1" stroke-width="1.04863"/>
<line x1="643.611" y1="102.242" x2="0.799316" y2="102.242" stroke="white" stroke-opacity="0.1" stroke-width="1.04863"/>
<line x1="643.611" y1="58.1991" x2="0.799316" y2="58.1991" stroke="white" stroke-opacity="0.1" stroke-width="1.04863"/>
<line x1="643.611" y1="14.1566" x2="0.799316" y2="14.1566" stroke="white" stroke-opacity="0.1" stroke-width="1.04863"/>
</svg>
